<?xml version="1.0" encoding="utf-8"?>
<!-- Generator: Adobe Illustrator 23.0.3, SVG Export Plug-In . SVG Version: 6.00 Build 0)  -->
<svg version="1.1" id="Layer_1" xmlns="http://www.w3.org/2000/svg" xmlns:xlink="http://www.w3.org/1999/xlink" x="0px" y="0px"
	 viewBox="0 0 720 150.1" style="enable-background:new 0 0 720 150.1;" xml:space="preserve">
<style type="text/css">
	.st0{fill:#778697;}
</style>
<g>
	<path class="st0" d="M129.5,30l-42,90H45.3c-5.3,0-10-2.6-12.9-7.1s-3.2-9.9-1-14.7L63.2,30h-33L4.3,85.6
		c-6.6,14.1-5.5,30.4,2.8,43.5c8.4,13.1,22.7,21,38.2,21h61.3l56-120L129.5,30L129.5,30z"/>
	<path class="st0" d="M430.5,30l-42,90h-42.2c-5.3,0-10-2.6-12.9-7.1s-3.2-9.9-1-14.7L364.2,30h-33.1l-25.9,55.5
		c-6.6,14.1-5.5,30.4,2.9,43.5c8.4,13.1,22.6,21,38.2,21h61.3l56-120L430.5,30L430.5,30z"/>
	<path class="st0" d="M279.2,0l-42.1,90h-22.2c-5.3,0-10-2.6-12.9-7.1s-3.2-9.9-1-14.7l3.8-8.2h-33.1l-42,90h33.1l20.1-43.1
		c8.4,8.3,19.8,13.1,31.9,13.1h41.3l28.1-60l28.1-60L279.2,0L279.2,0z"/>
</g>
<g>
	<path class="st0" d="M385,60c8.3,0,15-6.7,15-15s-6.7-15-15-15s-15,6.7-15,15S376.7,60,385,60z"/>
	<path class="st0" d="M87.1,60c8.3,0,15-6.7,15-15s-6.7-15-15-15s-15,6.7-15,15S78.8,60,87.1,60z"/>
</g>
<g>
	<path class="st0" d="M548,90l18-38.5c2.2-4.7,1.8-10.1-1-14.5s-7.6-7-12.8-7h-72l19.1,30h29.6l-14,30h-33.1l12.5-26.8l-19.1-30
		l-26.8,57.5c-3,6.4-2.5,13.8,1.3,19.8s10.3,9.5,17.4,9.5h33.8l-14,30H520l14-30h172l14-30L548,90L548,90z"/>
</g>
</svg>
