<?xml version="1.0" encoding="utf-8"?>
<!-- Generator: Adobe Illustrator 23.0.3, SVG Export Plug-In . SVG Version: 6.00 Build 0)  -->
<svg version="1.1" id="Layer_1" xmlns="http://www.w3.org/2000/svg" xmlns:xlink="http://www.w3.org/1999/xlink" x="0px" y="0px"
	 viewBox="0 0 953.8 313" style="enable-background:new 0 0 953.8 313;" xml:space="preserve">
<style type="text/css">
	.st0{fill:#007BEC;}
	.st1{opacity:0.63;fill:#007BEC;enable-background:new    ;}
</style>
<g>
	<g>
		<g>
			<g>
				<path class="st0" d="M922.8,181.7L870.3,251l51.4-67.7C922.1,182.8,922.5,182.2,922.8,181.7z"/>
				<path class="st0" d="M949.5,157.3c-2.9-5.8-7-10.7-11.8-14.5c1.7,1.4,2.6,3,3.1,4c1,2.1,2.9,7.5-1.3,12.9l-16.7,22
					c-0.3,0.5-0.6,1.1-1.1,1.6L870.3,251l0,0l-17.2,22.4h37.2l54.8-72.1C954.9,188.5,956.6,171.7,949.5,157.3z"/>
				<polygon class="st0" points="712.4,133.9 734.7,163.5 839.9,163.5 862.2,133.9 				"/>
				<polygon class="st1" points="712.4,133.9 734.7,163.5 830.8,163.5 853.1,133.9 				"/>
				<path class="st0" d="M926.1,110c-2.9-5.8-7-10.7-11.8-14.5c1.7,1.4,2.6,3,3.1,4c1,2.1,2.9,7.5-1.3,12.9l-16.4,21.5l-0.3,0.4
					c-0.3,0.5-0.6,1.1-1.1,1.6l-21.1,27.5l-3.6,4.7l0,0l-79.7,105.4h37.2l83.2-109.9l7.4-9.8c3.8-4.9,6.3-10.4,7.6-16.2
					C931.5,128.6,930.5,118.8,926.1,110z"/>
				<g>
					<path class="st0" d="M699,116.2h155l21.3-27.7c0.4-0.5,0.8-1.1,1.1-1.6l0.2-0.2H676.7L699,116.2z"/>
				</g>
				<path class="st0" d="M899.4,134.3l0.3-0.4h-0.1C899.6,134.1,899.5,134.2,899.4,134.3z"/>
				<path class="st0" d="M903,62.4c-2.9-5.8-7-10.7-11.8-14.5c1.7,1.4,2.6,3,3.1,4c1,2.1,2.9,7.5-1.3,12.9l-16.6,21.8l-0.2,0.2
					c-0.3,0.5-0.6,1.1-1.1,1.6l-21.3,27.7l-3.5,4.5l0,0l-10,13.2L818,163.4l-83.4,110.4h37.2l83.5-110.4l22.4-29.6l13.2-17.5l7.6-10
					c3.7-4.8,6.2-10.3,7.6-15.9C908.4,81.3,907.4,71.4,903,62.4z"/>
			</g>
			<path class="st0" d="M894.2,51.9c-0.5-1-1.5-2.6-3.1-4c-0.3-0.2-0.5-0.4-0.8-0.6c-7-5.2-15.7-8.2-24.9-8.2H640.7L663,68.7h202.3
				c5.7,0,8.8,3.2,10.3,5.5c0.3,0.5,0.6,1,0.8,1.3c0.9,1.9,2.5,6.4-0.2,11.3l16.7-22C897.2,59.4,895.2,54,894.2,51.9z"/>
		</g>
		<path class="st1" d="M949.5,157.3c-2.9-5.8-7-10.7-11.8-14.5c1.7,1.4,2.6,3,3.1,4c1,2.1,2.9,7.5-1.3,12.9l-16.7,22
			c-0.3,0.5-0.6,1.1-1.1,1.6L870.3,251l0,0l-17.2,22.4h37.2l54.8-72.1C954.9,188.5,956.6,171.7,949.5,157.3z"/>
		<path class="st1" d="M926.1,110c-2.9-5.8-7-10.7-11.8-14.5c1.7,1.4,2.6,3,3.1,4c1,2.1,2.9,7.5-1.3,12.9l-16.4,21.5l-0.3,0.4
			c-0.3,0.5-0.6,1.1-1.1,1.6l-21.1,27.5l-3.6,4.7l0,0l-79.7,105.4h37.2l83.2-109.9l7.4-9.8c3.8-4.9,6.3-10.4,7.6-16.2
			C931.5,128.6,930.5,118.8,926.1,110z"/>
		<path class="st1" d="M903,62.4c-2.9-5.8-7-10.7-11.8-14.5c1.7,1.4,2.6,3,3.1,4c1,2.1,2.9,7.5-1.3,12.9l-16.6,21.8l-0.2,0.2
			c-0.3,0.5-0.6,1.1-1.1,1.6l-21.3,27.7l-3.5,4.5l0,0l-10,13.2L818,163.4l-83.4,110.4h37.2l83.5-110.4l22.4-29.6l13.2-17.5l7.6-10
			c3.7-4.8,6.2-10.3,7.6-15.9C908.4,81.3,907.4,71.4,903,62.4z"/>
		<path class="st1" d="M699,116.2h155l21.3-27.7c0.4-0.5,0.8-1.1,1.1-1.6l0.2-0.2H676.7L699,116.2z"/>
		<path class="st1" d="M894.2,51.9c-0.5-1-1.5-2.6-3.1-4c-0.3-0.2-0.5-0.4-0.8-0.6c-7-5.2-15.7-8.2-24.9-8.2H640.7L663,68.7h202.3
			c5.7,0,8.8,3.2,10.3,5.5c0.3,0.5,0.6,1,0.8,1.3c0.9,1.9,2.5,6.4-0.2,11.3l16.7-22C897.2,59.4,895.2,54,894.2,51.9z"/>
	</g>
</g>
<g>
	<path class="st0" d="M129.5,153.3l-42,90H45.3c-5.3,0-10-2.6-12.9-7.1s-3.2-9.9-1-14.7l31.8-68.2h-33L4.3,208.9
		c-6.6,14.1-5.5,30.4,2.8,43.5c8.4,13.1,22.7,21,38.2,21h61.3l56-120L129.5,153.3L129.5,153.3z"/>
	<path class="st0" d="M430.5,153.3l-42,90h-42.2c-5.3,0-10-2.6-12.9-7.1s-3.2-9.9-1-14.7l31.8-68.2h-33.1l-25.9,55.5
		c-6.6,14.1-5.5,30.4,2.9,43.5c8.4,13.1,22.6,21,38.2,21h61.3l56-120L430.5,153.3L430.5,153.3z"/>
	<path class="st0" d="M279.2,123.3l-42.1,90h-22.2c-5.3,0-10-2.6-12.9-7.1s-3.2-9.9-1-14.7l3.8-8.2h-33.1l-42,90h33.1l20.1-43.1
		c8.4,8.3,19.8,13.1,31.9,13.1h41.3l28.1-60l28.1-60L279.2,123.3L279.2,123.3z"/>
</g>
<g>
	<path class="st0" d="M385,183.3c8.3,0,15-6.7,15-15s-6.7-15-15-15s-15,6.7-15,15S376.7,183.3,385,183.3z"/>
	<path class="st0" d="M87.1,183.3c8.3,0,15-6.7,15-15s-6.7-15-15-15s-15,6.7-15,15S78.8,183.3,87.1,183.3z"/>
</g>
<g>
	<path class="st0" d="M548,213.3l18-38.5c2.2-4.7,1.8-10.1-1-14.5s-7.6-7-12.8-7h-72l19.1,30h29.6l-14,30h-33.1l12.5-26.8l-19.1-30
		L448.4,214c-3,6.4-2.5,13.8,1.3,19.8s10.3,9.5,17.4,9.5h33.8l-14,30H520l14-30h172l14-30L548,213.3L548,213.3z"/>
</g>
</svg>
