<svg width="50" height="50" viewBox="0 0 50 50" fill="none" xmlns="http://www.w3.org/2000/svg">
<path d="M25 18.28C29.8734 18.28 34.5471 20.2159 37.9931 23.6619C41.4391 27.1079 43.375 31.7816 43.375 36.655V38.405H6.625V36.655C6.625 31.7816 8.56093 27.1079 12.0069 23.6619C15.4529 20.2159 20.1266 18.28 25 18.28Z" stroke="#3DDC84" stroke-width="4" stroke-miterlimit="10"/>
<path d="M25 18.28C29.8734 18.28 34.5471 20.2159 37.9931 23.6619C41.4391 27.1079 43.375 31.7816 43.375 36.655V38.405H6.625V36.655C6.625 31.7816 8.56093 27.1079 12.0069 23.6619C15.4529 20.2159 20.1266 18.28 25 18.28Z" fill="#3DDC84"/>
<path d="M16.9902 32C18.0948 32 18.9902 31.1046 18.9902 30C18.9902 28.8954 18.0948 28 16.9902 28C15.8857 28 14.9902 28.8954 14.9902 30C14.9902 31.1046 15.8857 32 16.9902 32Z" fill="white"/>
<path d="M33.6846 32C34.7891 32 35.6846 31.1046 35.6846 30C35.6846 28.8954 34.7891 28 33.6846 28C32.58 28 31.6846 28.8954 31.6846 30C31.6846 31.1046 32.58 32 33.6846 32Z" fill="white"/>
<path d="M9.96777 9.9325L14.9728 19.9425" stroke="#3DDC84" stroke-width="4" stroke-miterlimit="10"/>
<path d="M40.0323 9.9325L35.0273 19.9425" stroke="#3DDC84" stroke-width="4" stroke-miterlimit="10"/>
</svg>
