<svg width="50" height="50" viewBox="0 0 50 50" fill="none" xmlns="http://www.w3.org/2000/svg">
<path d="M39.4373 32.5469C38.3939 32.5521 37.4187 32.8474 36.5905 33.3554L36.6141 33.3422L33.0783 30.1279C34.0285 28.6776 34.5929 26.9005 34.5929 24.9921C34.5929 22.9289 33.9327 21.0192 32.8105 19.4639L32.8302 19.4914L36.8491 15.4726C37.5972 15.8873 38.4884 16.1327 39.436 16.1393H39.4386C42.5191 16.1393 45.0168 13.6416 45.0168 10.5612C45.0168 7.48075 42.5191 4.98306 39.4386 4.98306C36.3582 4.98306 33.8605 7.48075 33.8605 10.5612C33.8671 11.5114 34.1138 12.4026 34.5417 13.1796L34.5273 13.1507L30.5084 17.1696C29.003 16.0671 27.113 15.4056 25.0694 15.4056C23.9301 15.4056 22.8395 15.6117 21.8315 15.9871L21.8958 15.9661L21.0505 14.4304C22.0034 13.4369 22.5901 12.085 22.5901 10.5966C22.5901 7.53587 20.1081 5.05394 17.0474 5.05394C13.9866 5.05394 11.5047 7.53587 11.5047 10.5966C11.5047 13.6574 13.9866 16.1393 17.0474 16.1393C17.449 16.1393 17.8415 16.096 18.2195 16.0146L18.1827 16.0212L19.0253 17.5516C16.8138 19.2775 15.4055 21.9419 15.4055 24.937C15.4055 25.7311 15.5052 26.5028 15.6916 27.2391L15.6771 27.1748L14.8017 27.5462C13.778 26.3597 12.2725 25.6116 10.5925 25.6116C7.52915 25.6116 5.0459 28.0949 5.0459 31.1582C5.0459 34.2216 7.52915 36.7049 10.5925 36.7049C13.6559 36.7049 16.1391 34.2216 16.1391 31.1582C16.1391 31.1477 16.1391 31.1359 16.1391 31.1254C16.1286 30.9167 16.109 30.7238 16.0788 30.5348L16.0827 30.5663L16.9581 30.1949C18.6683 32.854 21.6136 34.5904 24.9644 34.5904C27.1996 34.5904 29.2536 33.8174 30.8746 32.5246L30.8549 32.539L34.4013 35.7612C34.0626 36.4516 33.8631 37.2627 33.8579 38.1197C33.8579 41.2002 36.3556 43.6992 39.436 43.6992C42.5165 43.6992 45.0141 41.2015 45.0141 38.1211C45.0141 35.0406 42.5165 32.5429 39.436 32.5429L39.4373 32.5469ZM14.7492 10.5625C14.7492 9.29462 15.7782 8.26562 17.0461 8.26562C18.314 8.26562 19.343 9.29462 19.343 10.5625C19.343 11.8304 18.314 12.8594 17.0461 12.8594C15.7782 12.8581 14.7505 11.8304 14.7492 10.5625ZM10.5623 33.4262C9.29446 33.4249 8.26809 32.3986 8.26809 31.1307C8.26809 29.8628 9.29577 28.8351 10.5636 28.8351C11.8315 28.8351 12.8579 29.8615 12.8592 31.1294C12.8579 32.3972 11.8302 33.4249 10.5623 33.4262ZM39.4373 8.26562C40.7052 8.26562 41.7342 9.29462 41.7342 10.5625C41.7342 11.8304 40.7052 12.8594 39.4373 12.8594C38.1695 12.8594 37.1405 11.8304 37.1405 10.5625C37.1418 9.29462 38.1695 8.26694 39.4373 8.26562ZM18.6867 25C18.6867 24.9987 18.6867 24.9974 18.6867 24.9961C18.6867 21.5114 21.5112 18.6869 24.9959 18.6869C26.7389 18.6869 28.3165 19.3943 29.4584 20.5362L29.4597 20.5375L29.461 20.5388C30.6029 21.6807 31.3077 23.2583 31.3077 25C31.3077 28.486 28.4819 31.3105 24.9972 31.3105C21.5125 31.3105 18.6867 28.4847 18.6867 25ZM39.4373 40.4219C38.1695 40.4219 37.1405 39.3929 37.1405 38.125C37.1405 36.8571 38.1695 35.8281 39.4373 35.8281C40.7052 35.8281 41.7342 36.8571 41.7342 38.125C41.7329 39.3929 40.7052 40.4206 39.4373 40.4219Z" fill="#209696"/>
</svg>
