<svg width="50" height="50" viewBox="0 0 50 50" fill="none" xmlns="http://www.w3.org/2000/svg">
<path d="M19.0937 9.90625C19.0937 6.64428 21.738 4 25 4C28.262 4 30.9062 6.64428 30.9062 9.90625C30.9062 13.1681 28.262 15.8125 25 15.8125C21.738 15.8125 19.0937 13.1681 19.0937 9.90625ZM39.9811 10.0189C38.956 8.99373 37.2939 8.99373 36.2689 10.0189L29.1627 17.125H20.8372L13.7311 10.0189C12.706 8.99373 11.0439 8.99373 10.0189 10.0189C8.99371 11.044 8.99371 12.7061 10.0189 13.7312L17.7812 21.4935V43.375C17.7812 44.8247 18.9565 46 20.4062 46H21.7187C23.1685 46 24.3437 44.8247 24.3437 43.375V34.1875H25.6562V43.375C25.6562 44.8247 26.8315 46 28.2812 46H29.5937C31.0435 46 32.2187 44.8247 32.2187 43.375V21.4935L39.9811 13.7311C41.0062 12.706 41.0062 11.044 39.9811 10.0189Z" fill="#61873A"/>
</svg>
