<svg width="50" height="50" viewBox="0 0 50 50" fill="none" xmlns="http://www.w3.org/2000/svg">
<path d="M39.1165 24.0833L38.3832 20.4167L26.8332 22.8V10.3333H23.1665V21.6083L10.4249 13.3583L8.4082 16.475L22.3415 25.4583L11.6165 39.4833L14.5499 41.6833L24.9082 28.1167L32.6082 39.7583L35.7249 37.7417L28.0249 26.2833L39.1165 24.0833Z" fill="#877B3A"/>
<path d="M18.583 25C18.583 25.8427 18.749 26.677 19.0714 27.4556C19.3939 28.2341 19.8666 28.9414 20.4624 29.5373C21.0582 30.1331 21.7656 30.6058 22.5441 30.9282C23.3226 31.2507 24.157 31.4167 24.9997 31.4167C25.8423 31.4167 26.6767 31.2507 27.4552 30.9282C28.2337 30.6058 28.9411 30.1331 29.5369 29.5373C30.1328 28.9414 30.6054 28.2341 30.9279 27.4556C31.2504 26.677 31.4163 25.8427 31.4163 25C31.4163 23.2982 30.7403 21.6661 29.5369 20.4627C28.3336 19.2594 26.7015 18.5833 24.9997 18.5833C23.2979 18.5833 21.6658 19.2594 20.4624 20.4627C19.259 21.6661 18.583 23.2982 18.583 25Z" fill="#877B3A"/>
<path d="M20.417 10.3333C20.417 10.9352 20.5355 11.5312 20.7659 12.0873C20.9962 12.6434 21.3338 13.1486 21.7594 13.5742C22.185 13.9998 22.6903 14.3374 23.2464 14.5678C23.8024 14.7981 24.3984 14.9167 25.0003 14.9167C25.6022 14.9167 26.1982 14.7981 26.7543 14.5678C27.3104 14.3374 27.8156 13.9998 28.2412 13.5742C28.6668 13.1486 29.0044 12.6434 29.2348 12.0873C29.4651 11.5312 29.5837 10.9352 29.5837 10.3333C29.5837 9.73144 29.4651 9.13544 29.2348 8.57937C29.0044 8.02329 28.6668 7.51803 28.2412 7.09243C27.8156 6.66683 27.3104 6.32922 26.7543 6.09889C26.1982 5.86855 25.6022 5.75 25.0003 5.75C24.3984 5.75 23.8024 5.86855 23.2464 6.09889C22.6903 6.32922 22.185 6.66683 21.7594 7.09243C21.3338 7.51803 20.9962 8.02329 20.7659 8.57937C20.5355 9.13544 20.417 9.73144 20.417 10.3333Z" fill="#877B3A"/>
<path d="M34.167 22.25C34.167 22.8519 34.2855 23.4479 34.5159 24.004C34.7462 24.56 35.0838 25.0653 35.5094 25.4909C35.935 25.9165 36.4403 26.2541 36.9964 26.4844C37.5524 26.7148 38.1484 26.8333 38.7503 26.8333C39.3522 26.8333 39.9482 26.7148 40.5043 26.4844C41.0604 26.2541 41.5656 25.9165 41.9912 25.4909C42.4168 25.0653 42.7544 24.56 42.9848 24.004C43.2151 23.4479 43.3337 22.8519 43.3337 22.25C43.3337 21.6481 43.2151 21.0521 42.9848 20.496C42.7544 19.94 42.4168 19.4347 41.9912 19.0091C41.5656 18.5835 41.0604 18.2459 40.5043 18.0155C39.9482 17.7852 39.3522 17.6667 38.7503 17.6667C38.1484 17.6667 37.5524 17.7852 36.9964 18.0155C36.4403 18.2459 35.935 18.5835 35.5094 19.0091C35.0838 19.4347 34.7462 19.94 34.5159 20.496C34.2855 21.0521 34.167 21.6481 34.167 22.25Z" fill="#877B3A"/>
<path d="M4.83301 14.9167C4.83295 15.5186 4.95146 16.1146 5.18177 16.6708C5.41207 17.2269 5.74967 17.7322 6.17528 18.1579C6.60089 18.5835 7.10617 18.9211 7.66227 19.1515C8.21838 19.3819 8.81441 19.5004 9.41634 19.5004C10.0183 19.5004 10.6143 19.3819 11.1704 19.1515C11.7265 18.9211 12.2318 18.5835 12.6574 18.1579C13.083 17.7322 13.4206 17.2269 13.6509 16.6708C13.8812 16.1146 13.9997 15.5186 13.9997 14.9167C13.9997 14.3147 13.8812 13.7187 13.6509 13.1626C13.4206 12.6064 13.083 12.1011 12.6574 11.6755C12.2318 11.2498 11.7265 10.9122 11.1704 10.6818C10.6143 10.4515 10.0183 10.3329 9.41634 10.3329C8.81441 10.3329 8.21838 10.4515 7.66227 10.6818C7.10617 10.9122 6.60089 11.2498 6.17528 11.6755C5.74967 12.1011 5.41207 12.6064 5.18177 13.1626C4.95146 13.7187 4.83295 14.3147 4.83301 14.9167Z" fill="#877B3A"/>
<path d="M8.5 40.5833C8.49994 41.1853 8.61845 41.7813 8.84876 42.3374C9.07907 42.8936 9.41666 43.3989 9.84227 43.8245C10.2679 44.2502 10.7732 44.5878 11.3293 44.8182C11.8854 45.0485 12.4814 45.1671 13.0833 45.1671C13.6853 45.1671 14.2813 45.0485 14.8374 44.8182C15.3935 44.5878 15.8988 44.2502 16.3244 43.8245C16.75 43.3989 17.0876 42.8936 17.3179 42.3374C17.5482 41.7813 17.6667 41.1853 17.6667 40.5833C17.6667 39.9814 17.5482 39.3854 17.3179 38.8292C17.0876 38.2731 16.75 37.7678 16.3244 37.3421C15.8988 36.9165 15.3935 36.5788 14.8374 36.3485C14.2813 36.1181 13.6853 35.9996 13.0833 35.9996C12.4814 35.9996 11.8854 36.1181 11.3293 36.3485C10.7732 36.5788 10.2679 36.9165 9.84227 37.3421C9.41666 37.7678 9.07907 38.2731 8.84876 38.8292C8.61845 39.3854 8.49994 39.9814 8.5 40.5833Z" fill="#877B3A"/>
<path d="M29.583 38.75C29.5829 39.3519 29.7015 39.948 29.9318 40.5041C30.1621 41.0602 30.4997 41.5655 30.9253 41.9912C31.3509 42.4168 31.8562 42.7545 32.4123 42.9848C32.9684 43.2152 33.5644 43.3338 34.1663 43.3338C34.7683 43.3338 35.3643 43.2152 35.9204 42.9848C36.4765 42.7545 36.9818 42.4168 37.4074 41.9912C37.833 41.5655 38.1706 41.0602 38.4009 40.5041C38.6312 39.948 38.7497 39.3519 38.7497 38.75C38.7497 38.1481 38.6312 37.552 38.4009 36.9959C38.1706 36.4398 37.833 35.9345 37.4074 35.5088C36.9818 35.0832 36.4765 34.7455 35.9204 34.5151C35.3643 34.2848 34.7683 34.1662 34.1663 34.1662C33.5644 34.1662 32.9684 34.2848 32.4123 34.5151C31.8562 34.7455 31.3509 35.0832 30.9253 35.5088C30.4997 35.9345 30.1621 36.4398 29.9318 36.9959C29.7015 37.552 29.5829 38.1481 29.583 38.75Z" fill="#877B3A"/>
</svg>
