<svg width="50" height="50" viewBox="0 0 50 50" fill="none" xmlns="http://www.w3.org/2000/svg">
<g clip-path="url(#clip0_2030_9937)">
<path d="M4.6218 20.7471C4.52832 20.7471 4.50495 20.6975 4.55169 20.6232L5.04244 19.9544C5.08918 19.88 5.20602 19.8305 5.2995 19.8305H13.6422C13.7357 19.8305 13.7591 19.9048 13.7124 19.9791L13.3151 20.6232C13.2683 20.6975 13.1515 20.7718 13.0814 20.7718L4.6218 20.7471Z" fill="#00ACD7"/>
<path d="M1.09348 23.0261C1 23.0261 0.976631 22.9765 1.02337 22.9022L1.51412 22.2334C1.56086 22.159 1.6777 22.1095 1.77118 22.1095H12.4275C12.5209 22.1095 12.5677 22.1838 12.5443 22.2581L12.3574 22.8527C12.334 22.9517 12.2405 23.0013 12.147 23.0013L1.09348 23.0261Z" fill="#00ACD7"/>
<path d="M6.74875 25.3051C6.65527 25.3051 6.6319 25.2308 6.67864 25.1564L7.00581 24.5371C7.05255 24.4628 7.14602 24.3885 7.2395 24.3885H11.9133C12.0068 24.3885 12.0535 24.4628 12.0535 24.5619L12.0068 25.1564C12.0068 25.2555 11.9133 25.3298 11.8432 25.3298L6.74875 25.3051Z" fill="#00ACD7"/>
<path d="M31.0055 20.3012C29.5332 20.6975 28.5284 20.9948 27.0795 21.3911C26.729 21.4902 26.7056 21.515 26.4018 21.1434C26.0513 20.7223 25.7942 20.4498 25.3034 20.2021C23.8312 19.4341 22.4057 19.6571 21.0736 20.5737C19.4846 21.6636 18.6666 23.2738 18.69 25.2803C18.7134 27.2621 19.9987 28.897 21.8448 29.1695C23.4339 29.3924 24.766 28.7979 25.8176 27.5345C26.0279 27.2621 26.2148 26.9648 26.4485 26.618C25.6072 26.618 24.5556 26.618 21.9383 26.618C21.4476 26.618 21.3307 26.2959 21.4943 25.8748C21.7981 25.1069 22.3589 23.8188 22.6861 23.1747C22.7562 23.0261 22.9198 22.7783 23.2703 22.7783C24.4622 22.7783 28.8555 22.7783 31.7767 22.7783C31.7299 23.4472 31.7299 24.116 31.6365 24.7849C31.3794 26.5684 30.7484 28.2034 29.7202 29.6401C28.0376 31.9935 25.8409 33.455 23.06 33.8514C20.7698 34.1734 18.6433 33.7027 16.7737 32.2164C15.0444 30.8292 14.0629 28.9961 13.8059 26.7171C13.5021 24.0169 14.2499 21.5893 15.7922 19.4589C17.4514 17.1551 19.6481 15.6936 22.3356 15.1734C24.5323 14.7523 26.6355 15.0248 28.5284 16.3872C29.7669 17.2542 30.655 18.4433 31.2392 19.88C31.3794 20.103 31.2859 20.2268 31.0055 20.3012Z" fill="#00ACD7"/>
<path d="M38.7411 34C36.6145 33.9504 34.6748 33.3064 33.039 31.8201C31.6602 30.5567 30.7956 28.9465 30.5152 27.0391C30.0945 24.2399 30.8189 21.7627 32.408 19.558C34.114 17.1799 36.1705 15.9413 38.9514 15.4211C41.335 14.9752 43.5784 15.2229 45.6115 16.6845C47.4577 18.0221 48.6028 19.8305 48.9066 22.2086C49.3039 25.5528 48.3925 28.2777 46.2191 30.6062C44.6768 32.2659 42.7839 33.3064 40.6106 33.777C39.9796 33.9009 39.3486 33.9257 38.7411 34ZM44.3029 23.9922C44.2795 23.6701 44.2795 23.4224 44.2328 23.1747C43.8121 20.7223 41.6856 19.335 39.4655 19.88C37.2922 20.4002 35.89 21.8618 35.3759 24.1903C34.9553 26.1225 35.8433 28.0795 37.5259 28.8722C38.8112 29.4667 40.0965 29.3924 41.335 28.7236C43.1812 27.7079 44.186 26.1225 44.3029 23.9922Z" fill="#00ACD7"/>
</g>
<defs>
<clipPath id="clip0_2030_9937">
<rect width="48" height="19" fill="white" transform="translate(1 15)"/>
</clipPath>
</defs>
</svg>
