<svg width="50" height="50" viewBox="0 0 50 50" fill="none" xmlns="http://www.w3.org/2000/svg">
<g clip-path="url(#clip0_2031_10091)">
<path d="M41.8984 4H8.10156C5.83633 4 4 5.83633 4 8.10156V41.8984C4 44.1637 5.83633 46 8.10156 46H41.8984C44.1637 46 46 44.1637 46 41.8984V8.10156C46 5.83633 44.1637 4 41.8984 4Z" fill="#F0DB4F"/>
<path d="M32.3534 37.2966C33.2092 38.6321 34.3226 39.6136 36.2918 39.6136C37.9461 39.6136 39.0029 38.8235 39.0029 37.7317C39.0029 36.4232 37.9171 35.9598 36.0963 35.1986L35.0982 34.7894C32.2172 33.6163 30.3032 32.1468 30.3032 29.0402C30.3032 26.1785 32.5847 24 36.1502 24C38.6886 24 40.5136 24.8443 41.8286 27.055L38.7197 28.9629C38.0352 27.7898 37.2967 27.3277 36.1502 27.3277C34.9808 27.3277 34.2397 28.0367 34.2397 28.9629C34.2397 30.1075 34.9814 30.5709 36.6945 31.2799L37.6925 31.6886C41.0847 33.0788 43 34.4961 43 37.6827C43 41.118 40.1763 43 36.3842 43C32.6765 43 30.281 41.3113 29.1089 39.098L32.3534 37.2966ZM18.2499 37.6273C18.8771 38.6907 19.4476 39.5898 20.8192 39.5898C22.131 39.5898 22.9584 39.0993 22.9584 37.1922V24.2178H26.9509V37.2437C26.9509 41.1947 24.5271 42.9929 20.9892 42.9929C17.7926 42.9929 15.9414 41.4119 15 39.5076L18.2499 37.6273Z" fill="white"/>
</g>
<defs>
<clipPath id="clip0_2031_10091">
<rect width="42" height="42" fill="white" transform="translate(4 4)"/>
</clipPath>
</defs>
</svg>
