<svg width="50" height="50" viewBox="0 0 50 50" fill="none" xmlns="http://www.w3.org/2000/svg">
<g clip-path="url(#clip0_2030_9934)">
<path fill-rule="evenodd" clip-rule="evenodd" d="M45.6858 13.3401C45.7013 13.3951 45.7092 13.4518 45.7094 13.5089V22.3709C45.7094 22.4846 45.6781 22.5963 45.6188 22.6948C45.5596 22.7932 45.4743 22.8748 45.3717 22.9314L37.6361 27.2138V35.7018C37.6361 35.9328 37.5084 36.146 37.3001 36.2624L21.1528 45.2003C21.1158 45.2205 21.0755 45.2334 21.0352 45.2471C21.0201 45.252 21.0058 45.2609 20.9898 45.2649C20.877 45.2935 20.7583 45.2935 20.6454 45.2649C20.627 45.2601 20.6102 45.2504 20.5925 45.2439C20.5556 45.231 20.5169 45.2197 20.4816 45.2003L4.33768 36.2624C4.23512 36.2057 4.14991 36.1241 4.09062 36.0257C4.03134 35.9272 4.00008 35.8155 4 35.7018V9.11582C4 9.05767 4.0084 9.00113 4.02352 8.9462C4.02856 8.92763 4.04032 8.91067 4.04704 8.89209C4.05964 8.85817 4.0714 8.82343 4.08988 8.79193C4.10248 8.77093 4.12096 8.75397 4.13608 8.73459C4.1554 8.70874 4.17304 8.68209 4.19572 8.65947C4.21504 8.6409 4.24024 8.62717 4.26208 8.61101C4.28644 8.59163 4.30828 8.57063 4.336 8.55528L12.4092 4.08632C12.5115 4.02976 12.6273 4 12.7452 4C12.8632 4 12.979 4.02976 13.0812 4.08632L21.1536 8.55528H21.1553C21.1822 8.57143 21.2049 8.59163 21.2292 8.6102C21.2511 8.62636 21.2754 8.6409 21.2948 8.65867C21.3183 8.68209 21.3351 8.70874 21.3552 8.73459C21.3695 8.75397 21.3888 8.77093 21.4006 8.79193C21.4199 8.82424 21.4308 8.85817 21.4443 8.89209C21.451 8.91067 21.4628 8.92763 21.4678 8.94701C21.4833 9.00205 21.4912 9.0588 21.4913 9.11582V25.7212L28.218 21.9969V13.5081C28.218 13.4515 28.2264 13.3942 28.2416 13.3401C28.2474 13.3207 28.2584 13.3037 28.2651 13.2851C28.2785 13.2512 28.2903 13.2165 28.3088 13.185C28.3214 13.164 28.3398 13.147 28.3541 13.1276C28.3743 13.1018 28.3911 13.0751 28.4146 13.0525C28.4339 13.0339 28.4583 13.0202 28.4801 13.0041C28.5053 12.9847 28.5272 12.9637 28.554 12.9483L36.6281 8.47936C36.7303 8.42272 36.8462 8.39291 36.9641 8.39291C37.0821 8.39291 37.1979 8.42272 37.3001 8.47936L45.3725 12.9483C45.4011 12.9645 45.4229 12.9847 45.4481 13.0032C45.4691 13.0194 45.4935 13.0339 45.5128 13.0517C45.5363 13.0751 45.5531 13.1018 45.5733 13.1276C45.5884 13.147 45.6069 13.164 45.6186 13.185C45.638 13.2165 45.6489 13.2512 45.6623 13.2851C45.6699 13.3037 45.6808 13.3207 45.6858 13.3401ZM44.3637 21.9969V14.6275L41.5388 16.1912L37.6361 18.3518V25.7212L44.3645 21.9969H44.3637ZM36.2913 35.3279V27.9536L32.4525 30.0617L21.4905 36.0774V43.5211L36.2913 35.3279ZM5.34568 10.2345V35.3279L20.1448 43.5203V36.0782L12.4134 31.8709L12.4109 31.8693L12.4076 31.8677C12.3815 31.8532 12.3597 31.8322 12.3353 31.8144C12.3143 31.7982 12.29 31.7853 12.2715 31.7676L12.2698 31.7651C12.248 31.7449 12.2328 31.7199 12.2144 31.6973C12.1976 31.6755 12.1774 31.6569 12.164 31.6343L12.1631 31.6319C12.148 31.6076 12.1388 31.5786 12.1278 31.5511C12.1169 31.5269 12.1026 31.5042 12.0959 31.4784C12.0875 31.4477 12.0858 31.4146 12.0825 31.3831C12.0791 31.3589 12.0724 31.3346 12.0724 31.3104V31.3088V13.9587L8.1706 11.7974L5.34568 10.2345ZM12.7461 5.39317L6.0202 9.11582L12.7444 12.8385L19.4694 9.11501L12.7444 5.39317H12.7461ZM16.2438 28.6256L20.1456 26.4659V10.2345L17.3207 11.7982L13.4181 13.9587V30.1901L16.2438 28.6256ZM36.9641 9.7862L30.2391 13.5089L36.9641 17.2315L43.6883 13.5081L36.9641 9.7862ZM36.2913 18.3518L32.3886 16.1912L29.5637 14.6275V21.9969L33.4655 24.1567L36.2913 25.7212V18.3518ZM20.8168 34.9587L30.6809 29.544L35.6117 26.8382L28.8917 23.118L21.1545 27.4012L14.1027 31.3047L20.8168 34.9587Z" fill="#ED4242"/>
</g>
<defs>
<clipPath id="clip0_2030_9934">
<rect width="42" height="42" fill="white" transform="translate(4 4)"/>
</clipPath>
</defs>
</svg>
