<svg width="50" height="50" viewBox="0 0 50 50" fill="none" xmlns="http://www.w3.org/2000/svg">
<g clip-path="url(#clip0_2031_10085)">
<path d="M44.6263 39.54C43.1894 38.9635 42.5747 38.1985 42.6341 37.057C42.6954 35.7247 41.9237 34.7488 41.5573 34.3632C41.7786 33.5348 42.4256 30.6689 41.5579 28.1797C40.6255 25.5153 37.7786 21.4459 34.8412 17.4459C33.6386 15.8031 33.5818 14.0175 33.5161 11.9499C33.4531 9.97779 33.3821 7.74239 32.2594 5.25739C31.0387 2.55159 28.5894 1 25.539 1C23.7244 1 21.8617 1.55554 20.4283 2.52405C17.4931 4.50843 17.8811 8.83491 18.1378 11.6978C18.173 12.0898 18.2061 12.4601 18.2254 12.7763C18.3963 15.5801 18.2408 17.0579 18.0374 17.5071C17.9059 17.8006 17.2581 18.6359 16.5726 19.5204C15.8636 20.4351 15.0598 21.4719 14.401 22.438C13.6149 23.6006 12.9803 25.3776 12.3666 27.096C11.9175 28.3534 11.4934 29.5411 11.0805 30.2509C10.298 31.6163 10.4927 32.8895 10.6553 33.478C10.359 33.6796 9.93101 34.0765 9.56969 34.8246C9.13303 35.7374 8.24701 36.228 6.40459 36.575C5.55793 36.7447 4.97411 37.0934 4.66886 37.6115C4.22464 38.3655 4.46659 39.3129 4.68733 39.9604C5.01347 40.9122 4.81024 41.5146 4.44073 42.6084C4.35558 42.8608 4.25902 43.1466 4.16118 43.4619C4.00711 43.9593 4.0627 44.4116 4.32602 44.8062C5.02182 45.8482 7.0522 46.2157 9.14235 46.4574C10.3903 46.6025 11.7562 47.0915 13.0773 47.5646C14.3717 48.0279 15.7102 48.5071 16.9268 48.6525C17.1117 48.6753 17.2949 48.6868 17.4714 48.6868C19.3084 48.6868 20.1383 47.4928 20.4015 47.0022C21.0613 46.8704 23.337 46.448 25.6824 46.3913C28.0242 46.3258 30.2899 46.7788 30.9317 46.9196C31.1335 47.298 31.6655 48.1621 32.5134 48.6073C32.9795 48.8569 33.628 49 34.2924 49H34.2925C35.002 49 36.3517 48.8357 37.4199 47.7348C38.4853 46.6288 41.1474 45.2168 43.0914 44.1858C43.5252 43.9557 43.931 43.7404 44.2868 43.5461C45.3788 42.9531 45.9747 42.1057 45.9215 41.2214C45.8772 40.4869 45.3809 39.8426 44.6263 39.54ZM20.4523 39.3271C20.3163 38.3891 19.0846 37.4588 17.6581 36.3817C16.4918 35.5009 15.1697 34.5026 14.8055 33.6572C14.0528 31.9131 14.6461 28.8465 15.6806 27.2673C16.1918 26.4767 16.6094 25.2776 17.0132 24.1181C17.4493 22.866 17.9002 21.5714 18.4045 21.0046C19.2032 20.1199 19.9412 18.3983 20.072 17.0415C20.8198 17.7409 21.9799 18.6284 23.0517 18.6284C23.2167 18.6284 23.3769 18.6073 23.53 18.565C24.2632 18.3575 25.3417 17.7471 26.3847 17.1569C27.2839 16.6479 28.3927 16.0203 28.8099 15.9632C29.5254 16.9695 33.6823 25.9811 34.1071 28.8751C34.4432 31.165 34.0882 33.0579 33.9097 33.7993C33.7661 33.7801 33.5948 33.7645 33.4149 33.7645C32.257 33.7645 31.9505 34.3837 31.8706 34.7533C31.6653 35.7138 31.6436 38.7851 31.6414 39.4752C31.2227 39.9962 29.1054 42.4501 26.0656 42.8912C24.8274 43.0675 23.6712 43.1569 22.6292 43.1569C21.7385 43.1569 21.1701 43.0895 20.9341 43.0544L19.4065 41.3423C20.0089 41.051 20.611 40.4363 20.4523 39.3271ZM22.3906 11.0956C22.3429 11.1158 22.296 11.1374 22.2499 11.1603C22.2452 11.059 22.2344 10.9562 22.2179 10.8531C22.0511 9.91279 21.4146 9.23024 20.7047 9.23024C20.6521 9.23024 20.5993 9.23418 20.5413 9.24283C20.1189 9.31177 19.7876 9.62259 19.6061 10.0632C19.7653 9.09632 20.3245 8.3804 20.9881 8.3804C21.7672 8.3804 22.4254 9.40903 22.4254 10.6265C22.4254 10.7799 22.414 10.9326 22.3906 11.0956ZM28.4451 11.8207C28.5164 11.5982 28.555 11.3574 28.555 11.1074C28.555 10.0036 27.8401 9.13881 26.9274 9.13881C26.0354 9.13881 25.3097 10.0219 25.3097 11.1074C25.3097 11.1814 25.3134 11.2555 25.3205 11.3295C25.2733 11.3117 25.2271 11.2944 25.1822 11.2777C25.0795 10.9732 25.0276 10.6555 25.0276 10.3311C25.0276 9.01117 25.8887 7.93723 26.9475 7.93723C28.006 7.93723 28.8673 9.01117 28.8673 10.3311C28.8673 10.8802 28.7126 11.4043 28.4451 11.8207ZM27.6645 14.3897C27.6492 14.4565 27.6168 14.486 27.2578 14.6689C27.0766 14.7613 26.8511 14.8763 26.5688 15.0447L26.3802 15.1566C25.6222 15.6067 23.8474 16.661 23.3656 16.7229C23.0384 16.766 22.8359 16.6416 22.3808 16.3387C22.2781 16.2702 22.1689 16.1975 22.0524 16.1243C21.2319 15.597 20.7042 15.0161 20.6446 14.789C20.9121 14.5864 21.5751 14.0795 21.9146 13.7794C22.6036 13.1518 23.297 12.73 23.6402 12.73C23.6583 12.73 23.6747 12.7313 23.6917 12.7344C24.095 12.8041 25.0896 13.193 25.8161 13.4769C26.1519 13.6082 26.4419 13.7215 26.6459 13.7933C27.2887 14.0095 27.6238 14.2862 27.6645 14.3897ZM33.4396 43.7203C33.8022 42.118 34.2199 39.9383 34.1523 38.6533C34.1367 38.3614 34.1103 38.0437 34.0848 37.7365C34.0371 37.162 33.9662 36.3082 34.0393 36.055C34.0538 36.0484 34.0699 36.0427 34.0877 36.0379C34.0907 36.7725 34.2536 38.2379 35.4499 38.7489C35.8064 38.9012 36.2138 38.9783 36.6608 38.9783C37.8591 38.9783 39.1887 38.4025 39.7333 37.869C40.054 37.5548 40.3237 37.1705 40.5127 36.8661C40.554 36.9847 40.5793 37.1395 40.566 37.3391C40.4948 38.4226 41.0324 39.8601 42.0555 40.3898L42.2044 40.4665C42.5688 40.6538 43.5366 41.1516 43.5521 41.3876C43.5521 41.3876 43.5439 41.4155 43.49 41.4646C43.2475 41.6816 42.3943 42.1084 41.5692 42.5212C40.1054 43.2533 38.4463 44.0832 37.7012 44.8509C36.6521 45.9324 35.4655 46.6588 34.7489 46.6588C34.6627 46.6588 34.5841 46.6481 34.5142 46.6264C33.736 46.3888 33.0955 45.2889 33.4396 43.7203ZM6.91339 39.6327C6.83403 39.2688 6.77137 38.9816 6.83869 38.7034C6.88753 38.4972 7.9265 38.2763 8.37023 38.182C8.99406 38.0493 9.63926 37.9122 10.0611 37.6614C10.6316 37.3229 10.9406 36.6985 11.2131 36.1477C11.4103 35.7494 11.6141 35.3375 11.8565 35.2023C11.8701 35.1945 11.891 35.1854 11.9309 35.1854C12.385 35.1854 13.3381 36.1206 13.8872 36.9577C14.0265 37.1688 14.2845 37.5917 14.583 38.0813C15.4758 39.5446 16.6982 41.5488 17.3366 42.2205C17.912 42.8243 18.8433 43.9853 18.6142 44.981C18.4465 45.7536 17.5535 46.3819 17.3429 46.5208C17.2664 46.5378 17.1718 46.5465 17.0605 46.5465C15.8385 46.5465 13.4197 45.5506 12.1201 45.0155L11.9278 44.9363C11.2021 44.6383 10.0174 44.4505 8.8718 44.2689C7.96023 44.1243 6.71193 43.9264 6.50501 43.7477C6.33728 43.5634 6.53183 42.9642 6.70342 42.4356C6.82696 42.0557 6.95452 41.6629 7.02441 41.2516C7.12353 40.5957 7.0069 40.0617 6.91339 39.6327Z" fill="black"/>
</g>
<defs>
<clipPath id="clip0_2031_10085">
<rect width="42" height="48" fill="white" transform="translate(4 1)"/>
</clipPath>
</defs>
</svg>
