<svg width="50" height="50" viewBox="0 0 50 50" fill="none" xmlns="http://www.w3.org/2000/svg">
<g clip-path="url(#clip0_2030_9936)">
<path d="M39.4375 35.5C38.8526 35.503 38.2759 35.6379 37.7504 35.8948L32.106 30.25H27.625V32.875H31.019L35.8944 37.7507C35.6379 38.2762 35.5031 38.8527 35.5 39.4375C35.5 40.2163 35.7309 40.9775 36.1636 41.6251C36.5962 42.2726 37.2112 42.7773 37.9307 43.0753C38.6502 43.3733 39.4419 43.4513 40.2057 43.2993C40.9695 43.1474 41.6711 42.7724 42.2217 42.2217C42.7724 41.6711 43.1474 40.9695 43.2993 40.2057C43.4513 39.4419 43.3733 38.6502 43.0753 37.9307C42.7773 37.2112 42.2726 36.5962 41.6251 36.1636C40.9775 35.7309 40.2163 35.5 39.4375 35.5ZM39.4375 40.75C39.1779 40.75 38.9242 40.673 38.7083 40.5288C38.4925 40.3846 38.3242 40.1796 38.2249 39.9398C38.1256 39.6999 38.0996 39.436 38.1502 39.1814C38.2009 38.9268 38.3259 38.693 38.5094 38.5094C38.693 38.3259 38.9268 38.2009 39.1814 38.1502C39.436 38.0996 39.6999 38.1256 39.9398 38.2249C40.1796 38.3242 40.3846 38.4925 40.5288 38.7083C40.673 38.9242 40.75 39.1779 40.75 39.4375C40.7497 39.7855 40.6113 40.1192 40.3652 40.3652C40.1192 40.6113 39.7855 40.7497 39.4375 40.75Z" fill="#3A4B87"/>
<path d="M39.4375 21.0625C38.6259 21.065 37.8349 21.3186 37.1732 21.7886C36.5115 22.2586 36.0115 22.922 35.7419 23.6875H27.625V26.3125H35.7419C35.9838 26.9912 36.4075 27.5903 36.9668 28.0444C37.5261 28.4986 38.1995 28.7902 38.9134 28.8876C39.6272 28.9849 40.3541 28.8841 41.0146 28.5963C41.6751 28.3085 42.2437 27.8447 42.6584 27.2555C43.0732 26.6664 43.318 25.9746 43.3661 25.2557C43.4143 24.5369 43.2639 23.8186 42.9315 23.1794C42.599 22.5402 42.0973 22.0047 41.4811 21.6314C40.8649 21.258 40.158 21.0613 39.4375 21.0625ZM39.4375 26.3125C39.1779 26.3125 38.9242 26.2355 38.7083 26.0913C38.4925 25.9471 38.3242 25.7421 38.2249 25.5023C38.1256 25.2624 38.0996 24.9985 38.1502 24.7439C38.2009 24.4893 38.3259 24.2555 38.5094 24.0719C38.693 23.8884 38.9268 23.7634 39.1814 23.7127C39.436 23.6621 39.6999 23.6881 39.9398 23.7874C40.1796 23.8868 40.3846 24.055 40.5288 24.2708C40.673 24.4867 40.75 24.7404 40.75 25C40.7497 25.348 40.6113 25.6817 40.3652 25.9277C40.1192 26.1738 39.7855 26.3122 39.4375 26.3125Z" fill="#3A4B87"/>
<path d="M39.4375 6.625C38.3936 6.62615 37.3927 7.04136 36.6545 7.77953C35.9164 8.51771 35.5011 9.51856 35.5 10.5625C35.5045 11.1913 35.6613 11.8096 35.9569 12.3646L31.0319 17.125H27.625V19.75H32.0931L37.8667 14.1687C38.403 14.4025 38.9848 14.5138 39.5695 14.4944C40.1543 14.4751 40.7274 14.3256 41.2471 14.0569C41.7669 13.7881 42.2201 13.4069 42.5739 12.9409C42.9278 12.4749 43.1732 11.9359 43.2925 11.3631C43.4118 10.7903 43.4019 10.1981 43.2634 9.62965C43.125 9.06117 42.8616 8.5307 42.4923 8.07686C42.1231 7.62301 41.6573 7.2572 41.1288 7.00605C40.6004 6.7549 40.0226 6.62472 39.4375 6.625ZM39.4375 11.875C39.1779 11.875 38.9242 11.798 38.7083 11.6538C38.4925 11.5096 38.3242 11.3046 38.2249 11.0648C38.1256 10.8249 38.0996 10.561 38.1502 10.3064C38.2009 10.0518 38.3259 9.81798 38.5094 9.63442C38.693 9.45087 38.9268 9.32586 39.1814 9.27522C39.436 9.22458 39.6999 9.25057 39.9398 9.34991C40.1796 9.44925 40.3846 9.61748 40.5288 9.83331C40.673 10.0492 40.75 10.3029 40.75 10.5625C40.7497 10.9105 40.6113 11.2442 40.3652 11.4902C40.1192 11.7363 39.7855 11.8747 39.4375 11.875Z" fill="#3A4B87"/>
<path d="M27.625 11.875H30.25V9.25H27.625C26.877 9.25251 26.1383 9.41582 25.4589 9.72885C24.7795 10.0419 24.1754 10.4973 23.6875 11.0643C23.1996 10.4973 22.5955 10.0419 21.9161 9.72885C21.2367 9.41582 20.498 9.25251 19.75 9.25H18.4375C15.3057 9.25347 12.3032 10.4991 10.0886 12.7136C7.87412 14.9282 6.62847 17.9307 6.625 21.0625V28.9375C6.62847 32.0693 7.87412 35.0718 10.0886 37.2864C12.3032 39.5009 15.3057 40.7465 18.4375 40.75H19.75C20.498 40.7475 21.2367 40.5842 21.9161 40.2712C22.5955 39.9581 23.1996 39.5027 23.6875 38.9357C24.1754 39.5027 24.7795 39.9581 25.4589 40.2712C26.1383 40.5842 26.877 40.7475 27.625 40.75H30.25V38.125H27.625C26.9291 38.1242 26.2618 37.8474 25.7697 37.3553C25.2776 36.8632 25.0008 36.1959 25 35.5V14.5C25.0008 13.8041 25.2776 13.1368 25.7697 12.6447C26.2618 12.1526 26.9291 11.8758 27.625 11.875ZM19.75 38.125H18.4375C16.2304 38.1211 14.0984 37.3234 12.4309 35.8776C10.7633 34.4317 9.67156 32.4343 9.355 30.25H11.875V27.625H9.25V22.375H13.1875C14.2314 22.3739 15.2323 21.9586 15.9705 21.2205C16.7086 20.4823 17.1239 19.4814 17.125 18.4375V15.8125H14.5V18.4375C14.4997 18.7855 14.3613 19.1192 14.1152 19.3652C13.8692 19.6113 13.5355 19.7497 13.1875 19.75H9.355C9.67156 17.5657 10.7633 15.5683 12.4309 14.1224C14.0984 12.6766 16.2304 11.8789 18.4375 11.875H19.75C20.4459 11.8758 21.1132 12.1526 21.6053 12.6447C22.0974 13.1368 22.3742 13.8041 22.375 14.5V19.75H19.75V22.375H22.375V27.625H19.75C18.7061 27.6261 17.7052 28.0414 16.967 28.7795C16.2289 29.5177 15.8136 30.5186 15.8125 31.5625V34.1875H18.4375V31.5625C18.4378 31.2145 18.5762 30.8808 18.8223 30.6348C19.0683 30.3887 19.402 30.2503 19.75 30.25H22.375V35.5C22.3742 36.1959 22.0974 36.8632 21.6053 37.3553C21.1132 37.8474 20.4459 38.1242 19.75 38.125Z" fill="#3A4B87"/>
</g>
<defs>
<clipPath id="clip0_2030_9936">
<rect width="42" height="42" fill="white" transform="translate(4 4)"/>
</clipPath>
</defs>
</svg>
