<svg width="50" height="50" viewBox="0 0 50 50" fill="none" xmlns="http://www.w3.org/2000/svg">
<path d="M26.1121 1.31001C25.4001 0.907243 24.5548 0.907243 23.843 1.31001L5.11226 12.1886C4.40044 12.5916 4 13.3525 4 14.1585V35.9602C4 36.7662 4.44486 37.5271 5.11226 37.9301L23.843 48.8087C24.5548 49.2115 25.4001 49.2115 26.1121 48.8087L44.8426 37.9301C45.5546 37.5271 45.9549 36.7662 45.9549 35.9602V14.1585C45.9549 13.3525 45.51 12.5916 44.8426 12.1886L26.1121 1.31001Z" fill="url(#paint0_linear_2030_9932)"/>
<path d="M44.8889 12.1886L26.0694 1.31001C25.8915 1.22048 25.6689 1.13095 25.491 1.0863L4.40234 37.3929C4.58024 37.6166 4.80278 37.7957 5.02509 37.9301L23.8449 48.8087C24.3788 49.1219 25.0015 49.2115 25.5799 49.0324L45.3784 12.5916C45.2449 12.4126 45.067 12.2782 44.8889 12.1886Z" fill="url(#paint1_linear_2030_9932)"/>
<path d="M44.8883 37.9294C45.4222 37.6159 45.8226 37.0788 46.0005 36.4967L25.4011 1.04075C24.8674 0.951225 24.2888 0.995872 23.7996 1.30934L5.11328 12.1431L25.2676 49.1213C25.5346 49.0764 25.8462 48.9869 26.1131 48.8527L44.8883 37.9294Z" fill="url(#paint2_linear_2030_9932)"/>
<path d="M28.3534 29.2966C29.2092 30.6321 30.3226 31.6136 32.2918 31.6136C33.9461 31.6136 35.0029 30.8235 35.0029 29.7317C35.0029 28.4232 33.9171 27.9598 32.0963 27.1986L31.0982 26.7894C28.2172 25.6163 26.3032 24.1468 26.3032 21.0402C26.3032 18.1785 28.5847 16 32.1502 16C34.6886 16 36.5136 16.8443 37.8286 19.055L34.7197 20.9629C34.0352 19.7898 33.2967 19.3277 32.1502 19.3277C30.9808 19.3277 30.2397 20.0367 30.2397 20.9629C30.2397 22.1075 30.9814 22.5709 32.6945 23.2799L33.6925 23.6886C37.0847 25.0788 39 26.4961 39 29.6827C39 33.118 36.1763 35 32.3842 35C28.6765 35 26.281 33.3113 25.1089 31.098L28.3534 29.2966ZM14.2499 29.6273C14.8771 30.6907 15.4476 31.5898 16.8192 31.5898C18.131 31.5898 18.9584 31.0993 18.9584 29.1922V16.2178H22.9509V29.2437C22.9509 33.1947 20.5271 34.9929 16.9892 34.9929C13.7926 34.9929 11.9414 33.4119 11 31.5076L14.2499 29.6273Z" fill="white"/>
<defs>
<linearGradient id="paint0_linear_2030_9932" x1="32.6059" y1="9.41207" x2="15.5005" y2="44.0913" gradientUnits="userSpaceOnUse">
<stop stop-color="#3F873F"/>
<stop offset="0.3296" stop-color="#3F8B3D"/>
<stop offset="0.6367" stop-color="#3E9638"/>
<stop offset="0.9341" stop-color="#3DA92E"/>
<stop offset="1" stop-color="#3DAE2B"/>
</linearGradient>
<linearGradient id="paint1_linear_2030_9932" x1="22.1326" y1="27.6051" x2="69.8599" y2="-7.44036" gradientUnits="userSpaceOnUse">
<stop offset="0.1376" stop-color="#3F873F"/>
<stop offset="0.4016" stop-color="#52A044"/>
<stop offset="0.7129" stop-color="#64B749"/>
<stop offset="0.9081" stop-color="#6ABF4B"/>
</linearGradient>
<linearGradient id="paint2_linear_2030_9932" x1="3.31432" y1="25.0516" x2="46.6561" y2="25.0516" gradientUnits="userSpaceOnUse">
<stop offset="0.0919165" stop-color="#6ABF4B"/>
<stop offset="0.2871" stop-color="#64B749"/>
<stop offset="0.5984" stop-color="#52A044"/>
<stop offset="0.8624" stop-color="#3F873F"/>
</linearGradient>
</defs>
</svg>
