<svg width="50" height="50" viewBox="0 0 50 50" fill="none" xmlns="http://www.w3.org/2000/svg">
<g clip-path="url(#clip0_2030_10036)">
<path fill-rule="evenodd" clip-rule="evenodd" d="M7.4 42.6H16.2V33.8H7.4V42.6ZM3 47H20.6V29.4H3V47ZM33.8 16.2H42.6V7.4H33.8V16.2ZM29.4 20.6H47V3H29.4V20.6ZM33.8 25V29.4H36V36H29.4V33.8H25V42.6H29.4V40.4H40.4V29.4H42.6V25H33.8ZM20.6 16.2V14H14V20.6H16.2V25H7.4V20.6H9.6V9.6H20.6V7.4H25V16.2H20.6Z" fill="#3A8775"/>
</g>
<defs>
<clipPath id="clip0_2030_10036">
<rect width="44" height="44" fill="white" transform="translate(3 3)"/>
</clipPath>
</defs>
</svg>
