<svg width="50" height="50" viewBox="0 0 50 50" fill="none" xmlns="http://www.w3.org/2000/svg">
<path d="M24.6906 3.00036C22.8803 3.00877 21.1514 3.16317 19.6302 3.43235C15.149 4.22405 14.3353 5.88113 14.3353 8.93708V12.9731H24.9252V14.3184H14.3353H10.3611C7.28336 14.3184 4.58844 16.1683 3.7455 19.6874C2.77318 23.7211 2.73005 26.2382 3.7455 30.45C4.49826 33.5851 6.29596 35.819 9.37366 35.819H13.0147V30.9807C13.0147 27.4854 16.0389 24.4022 19.6302 24.4022H30.2077C33.1521 24.4022 35.5026 21.9779 35.5026 19.0209V8.93708C35.5026 6.06718 33.0815 3.91132 30.2077 3.43235C28.3885 3.12952 26.501 2.99195 24.6906 3.00036ZM18.9637 6.24643C20.0576 6.24643 20.9509 7.1543 20.9509 8.27059C20.9509 9.38293 20.0576 10.2824 18.9637 10.2824C17.866 10.2824 16.9766 9.38293 16.9766 8.27059C16.9766 7.1543 17.866 6.24643 18.9637 6.24643Z" fill="#4B8BBE"/>
<path d="M36.8229 14.3184V19.0209C36.8229 22.6666 33.732 25.7352 30.2074 25.7352H19.6299C16.7325 25.7352 14.335 28.2149 14.335 31.1165V41.2003C14.335 44.0702 16.8305 45.7582 19.6299 46.5816C22.982 47.5672 26.1965 47.7454 30.2074 46.5816C32.8734 45.8097 35.5023 44.2562 35.5023 41.2003V37.1643H24.9248V35.8189H35.5023H40.7972C43.8749 35.8189 45.0218 33.6722 46.0921 30.45C47.1977 27.1328 47.1507 23.9427 46.0921 19.6874C45.3315 16.6235 43.8788 14.3184 40.7972 14.3184H36.8229ZM30.8739 39.8549C31.9716 39.8549 32.861 40.7544 32.861 41.8668C32.861 42.983 31.9716 43.8909 30.8739 43.8909C29.78 43.8909 28.8867 42.983 28.8867 41.8668C28.8867 40.7544 29.78 39.8549 30.8739 39.8549Z" fill="#FFD43B"/>
</svg>
