<svg width="50" height="50" viewBox="0 0 50 50" fill="none" xmlns="http://www.w3.org/2000/svg">
<circle cx="25" cy="25" r="23" fill="#474A8A"/>
<path d="M12.9715 27.2703C14.0621 27.2703 14.8762 27.066 15.3914 26.6633C15.901 26.2648 16.253 25.5742 16.4375 24.611C16.6095 23.7107 16.544 23.082 16.2428 22.7427C15.9348 22.3962 15.269 22.2205 14.2638 22.2205H12.521L11.5548 27.2703H12.9715ZM7.2711 33.4908C7.1902 33.4908 7.11337 33.4541 7.06194 33.3906C7.01041 33.3271 6.98953 33.2436 7.00499 33.1629L9.56561 19.7807C9.59038 19.6513 9.70202 19.5578 9.83182 19.5578H15.3506C17.0851 19.5578 18.376 20.0362 19.1875 20.9798C20.0033 21.9283 20.2552 23.2542 19.9362 24.9206C19.8064 25.5995 19.5831 26.23 19.2726 26.7945C18.9618 27.3596 18.5509 27.8825 18.0514 28.3489C17.4533 28.9174 16.7765 29.3297 16.0414 29.5722C15.318 29.8116 14.3889 29.933 13.2801 29.933H11.0454L10.4073 33.2679C10.3825 33.3974 10.2709 33.4908 10.1411 33.4908H7.2711Z" fill="white"/>
<path d="M26.7408 29.933C26.6608 29.933 26.5851 29.8963 26.5343 29.8328C26.4834 29.7693 26.4627 29.6858 26.478 29.605L27.5962 23.684C27.7025 23.1208 27.6763 22.7167 27.5224 22.5459C27.4282 22.4415 27.1451 22.2664 26.3082 22.2664H24.2824L22.8765 29.7101C22.8521 29.8395 22.7419 29.933 22.6137 29.933H19.8029C19.7229 29.933 19.6472 29.8963 19.5963 29.8328C19.5454 29.7693 19.5248 29.6858 19.5401 29.605L22.0679 16.2228C22.0923 16.0935 22.2025 16 22.3307 16H25.1415C25.2215 16 25.2973 16.0367 25.3481 16.1002C25.399 16.1637 25.4196 16.2472 25.4043 16.328L24.7943 19.5579H26.9736C28.6338 19.5579 29.7596 19.859 30.4153 20.4786C31.0836 21.1106 31.2922 22.1213 31.0352 23.4827L29.8591 29.7101C29.8346 29.8395 29.7245 29.933 29.5963 29.933H26.7408Z" fill="white"/>
<path d="M36.2104 27.2703C37.3428 27.2703 38.1882 27.066 38.7231 26.6633C39.2523 26.2649 39.6178 25.5743 39.8094 24.611C39.9881 23.7107 39.92 23.082 39.6072 22.7427C39.2874 22.3962 38.596 22.2205 37.5523 22.2205H35.7426L34.7393 27.2703H36.2104ZM30.2914 33.4908C30.2073 33.4908 30.1276 33.4541 30.0742 33.3906C30.0207 33.3271 29.9989 33.2436 30.0149 33.1629L32.6738 19.7807C32.6996 19.6513 32.8154 19.5578 32.9503 19.5578H38.6808C40.4819 19.5578 41.8223 20.0362 42.665 20.9798C43.512 21.9282 43.7735 23.2541 43.4424 24.9206C43.3074 25.5995 43.0757 26.23 42.7533 26.7945C42.4305 27.3596 42.0039 27.8825 41.4851 28.3489C40.8642 28.9174 40.1613 29.3297 39.3981 29.5722C38.6469 29.8116 37.6822 29.933 36.5308 29.933H34.2103L33.5479 33.2679C33.5221 33.3974 33.4063 33.4908 33.2714 33.4908H30.2914Z" fill="white"/>
</svg>
