<svg width="50" height="50" viewBox="0 0 50 50" fill="none" xmlns="http://www.w3.org/2000/svg">
<g clip-path="url(#clip0_2030_9939)">
<path d="M25.0003 28.2066C27.0678 28.2066 28.7438 26.5471 28.7438 24.5C28.7438 22.4529 27.0678 20.7934 25.0003 20.7934C22.9328 20.7934 21.2568 22.4529 21.2568 24.5C21.2568 26.5471 22.9328 28.2066 25.0003 28.2066Z" fill="#42C4ED"/>
<path d="M25 32.094C36.0938 32.094 45.087 28.6941 45.087 24.5C45.087 20.306 36.0938 16.906 25 16.906C13.9063 16.906 4.91309 20.306 4.91309 24.5C4.91309 28.6941 13.9063 32.094 25 32.094Z" stroke="#42C4ED" stroke-width="2"/>
<path d="M18.358 28.297C23.9049 37.8098 31.3753 43.8215 35.0436 41.7245C38.7118 39.6274 37.189 30.2158 31.6421 20.703C26.0953 11.1902 18.6249 5.17852 14.9566 7.27555C11.2883 9.37258 12.8112 18.7842 18.358 28.297Z" stroke="#42C4ED" stroke-width="2"/>
<path d="M18.358 20.703C12.8111 30.2158 11.2883 39.6274 14.9566 41.7245C18.6248 43.8215 26.0952 37.8098 31.6421 28.297C37.1889 18.7842 38.7118 9.37259 35.0435 7.27556C31.3752 5.17853 23.9049 11.1902 18.358 20.703Z" stroke="#42C4ED" stroke-width="2"/>
</g>
<defs>
<clipPath id="clip0_2030_9939">
<rect width="42" height="37" fill="white" transform="translate(4 6)"/>
</clipPath>
</defs>
</svg>
