<svg width="50" height="50" viewBox="0 0 50 50" fill="none" xmlns="http://www.w3.org/2000/svg">
<g clip-path="url(#clip0_2030_9928)">
<path d="M41.8984 4H8.10156C5.83633 4 4 5.83633 4 8.10156V41.8984C4 44.1637 5.83633 46 8.10156 46H41.8984C44.1637 46 46 44.1637 46 41.8984V8.10156C46 5.83633 44.1637 4 41.8984 4Z" fill="#3178C6"/>
<path fill-rule="evenodd" clip-rule="evenodd" d="M29.9989 37.4215V41.5281C30.6665 41.8703 31.456 42.1269 32.3676 42.298C33.2791 42.4691 34.2398 42.5547 35.2497 42.5547C36.234 42.5547 37.169 42.4606 38.0549 42.2723C38.9407 42.0842 39.7175 41.774 40.385 41.3419C41.0526 40.91 41.5811 40.3453 41.9705 39.648C42.3599 38.9507 42.5547 38.0888 42.5547 37.0622C42.5547 36.3179 42.4435 35.6655 42.2209 35.1052C41.9984 34.5448 41.6774 34.0465 41.258 33.6102C40.8387 33.1738 40.3358 32.7824 39.7495 32.4359C39.1633 32.0894 38.5021 31.7622 37.766 31.4542C37.2268 31.2317 36.7433 31.0158 36.3153 30.8062C35.8874 30.5965 35.5236 30.3826 35.224 30.1645C34.9245 29.9463 34.6934 29.7153 34.5308 29.4715C34.3682 29.2276 34.2868 28.9518 34.2868 28.6437C34.2868 28.3615 34.3596 28.1069 34.5051 27.8802C34.6507 27.6535 34.8561 27.4589 35.1213 27.2963C35.3867 27.1338 35.7119 27.0076 36.097 26.9177C36.4822 26.8279 36.9101 26.783 37.3809 26.783C37.7232 26.783 38.0848 26.8087 38.4657 26.86C38.8465 26.9113 39.2296 26.9905 39.6148 27.0974C39.9999 27.2043 40.3743 27.3391 40.7381 27.5016C41.1018 27.6642 41.4378 27.8524 41.7459 28.0663V24.2292C41.1211 23.9897 40.4385 23.8122 39.6982 23.6967C38.9579 23.5812 38.1083 23.5234 37.1498 23.5234C36.1741 23.5234 35.2497 23.6283 34.3767 23.8379C33.5038 24.0475 32.7356 24.3747 32.0722 24.8195C31.4089 25.2645 30.8848 25.8312 30.4996 26.52C30.1145 27.2086 29.9219 28.032 29.9219 28.9902C29.9219 30.2137 30.2749 31.2574 30.9811 32.1215C31.6871 32.9856 32.7591 33.7171 34.197 34.316C34.7619 34.547 35.2883 34.7736 35.7761 34.9961C36.264 35.2186 36.6855 35.4496 37.0406 35.6891C37.3958 35.9286 37.6761 36.1896 37.8816 36.4719C38.087 36.7542 38.1897 37.075 38.1897 37.4344C38.1897 37.6996 38.1255 37.9455 37.9971 38.1722C37.8687 38.399 37.674 38.5957 37.413 38.7625C37.1519 38.9294 36.8267 39.0598 36.4373 39.1539C36.0478 39.2481 35.5921 39.2951 35.07 39.2951C34.1799 39.2951 33.2984 39.139 32.4253 38.8267C31.5523 38.5145 30.7435 38.0461 29.9989 37.4215ZM23.0952 27.3036H28.3633V23.9336H13.6797V27.3036H18.922V42.3086H23.0952V27.3036Z" fill="white"/>
</g>
<defs>
<clipPath id="clip0_2030_9928">
<rect width="42" height="42" fill="white" transform="translate(4 4)"/>
</clipPath>
</defs>
</svg>
