<svg width="50" height="50" viewBox="0 0 50 50" fill="none" xmlns="http://www.w3.org/2000/svg">
<g clip-path="url(#clip0_2030_9930)">
<path d="M6.98535 24.9995C6.98535 32.1303 11.1295 38.2927 17.1388 41.2129L8.5451 17.6678C7.54549 19.9083 6.98535 22.3878 6.98535 24.9995Z" fill="#207196"/>
<path d="M37.1625 24.0904C37.1625 21.864 36.3628 20.3221 35.6768 19.122C34.7636 17.638 33.9076 16.3813 33.9076 14.8974C33.9076 13.2414 35.1637 11.6998 36.9329 11.6998C37.0127 11.6998 37.0885 11.7098 37.1663 11.7142C33.9611 8.77785 29.6908 6.98505 25.0006 6.98505C18.7068 6.98505 13.1695 10.2142 9.94824 15.1051C10.3709 15.1178 10.7693 15.1267 11.1076 15.1267C12.992 15.1267 15.9089 14.8981 15.9089 14.8981C16.88 14.8408 16.9945 16.2672 16.0244 16.382C16.0244 16.382 15.0484 16.4969 13.9624 16.5538L20.523 36.0672L24.4655 24.2433L21.6587 16.5531C20.6885 16.4962 19.7695 16.3813 19.7695 16.3813C18.7987 16.3244 18.9125 14.8401 19.8833 14.8974C19.8833 14.8974 22.8585 15.126 24.6287 15.126C26.5127 15.126 29.43 14.8974 29.43 14.8974C30.4018 14.8401 30.516 16.2665 29.5455 16.3813C29.5455 16.3813 28.5675 16.4962 27.4836 16.5531L33.994 35.9188L35.791 29.9141C36.5698 27.4224 37.1625 25.6326 37.1625 24.0904Z" fill="#207196"/>
<path d="M25.3164 26.5753L19.9111 42.2817C21.525 42.7562 23.2318 43.0157 25.0004 43.0157C27.0983 43.0157 29.1102 42.653 30.9829 41.9945C30.9346 41.9173 30.8907 41.8354 30.8547 41.7463L25.3164 26.5753Z" fill="#207196"/>
<path d="M40.8091 16.3563C40.8866 16.9302 40.9304 17.5462 40.9304 18.2088C40.9304 20.0369 40.589 22.0919 39.5606 24.6615L34.0576 40.5715C39.4135 37.4484 43.016 31.6459 43.016 24.9998C43.0164 21.8677 42.2163 18.9225 40.8091 16.3563Z" fill="#207196"/>
<path d="M25.0007 4C13.4212 4 4 13.4203 4 24.9995C4 36.5801 13.4212 46 25.0007 46C36.5798 46 46.0024 36.5801 46.0024 24.9995C46.0021 13.4203 36.5798 4 25.0007 4ZM25.0007 45.0374C13.9522 45.0374 4.96293 36.0484 4.96293 24.9995C4.96293 13.9513 13.9519 4.9629 25.0007 4.9629C36.0488 4.9629 45.0374 13.9513 45.0374 24.9995C45.0374 36.0484 36.0488 45.0374 25.0007 45.0374Z" fill="#207196"/>
</g>
<defs>
<clipPath id="clip0_2030_9930">
<rect width="42" height="42" fill="white" transform="translate(4 4)"/>
</clipPath>
</defs>
</svg>
