<?xml version="1.0" encoding="utf-8"?>
<!-- Generator: Adobe Illustrator 25.2.3, SVG Export Plug-In . SVG Version: 6.00 Build 0)  -->
<svg version="1.1" id="Layer_1" xmlns="http://www.w3.org/2000/svg" xmlns:xlink="http://www.w3.org/1999/xlink" x="0px" y="0px"
	 viewBox="0 0 313.1 313" style="enable-background:new 0 0 313.1 313;" xml:space="preserve">
<style type="text/css">
	.st0{fill:#007BEC;}
	.st1{opacity:0.63;fill:#007BEC;enable-background:new    ;}
</style>
<g>
	<g>
		<g>
			<g>
				<path class="st0" d="M282,181.4l-52.5,69.3L281,183C281.4,182.4,281.7,181.9,282,181.4z"/>
				<path class="st0" d="M308.7,157c-2.9-5.8-7-10.7-11.8-14.5c1.7,1.4,2.6,3,3.1,4c1,2.1,2.9,7.5-1.3,12.9l-16.7,22
					c-0.3,0.5-0.6,1.1-1.1,1.6l-51.4,67.7l0,0L212.4,273h37.2l54.8-72.1C314.2,188.2,315.8,171.4,308.7,157z"/>
				<polygon class="st0" points="71.6,133.6 94,163.2 199.1,163.2 221.5,133.6 				"/>
				<polygon class="st1" points="71.6,133.6 94,163.2 190.1,163.2 212.4,133.6 				"/>
				<path class="st0" d="M285.4,109.7c-2.9-5.8-7-10.7-11.8-14.5c1.7,1.4,2.6,3,3.1,4c1,2.1,2.9,7.5-1.3,12.9L259,133.6l-0.3,0.4
					c-0.3,0.5-0.6,1.1-1.1,1.6l-21.1,27.5l-3.6,4.7l0,0l-79.7,105.4h37.2l83.2-109.9l7.4-9.8c3.8-4.9,6.3-10.4,7.6-16.2
					C290.8,128.3,289.8,118.5,285.4,109.7z"/>
				<g>
					<path class="st0" d="M58.2,115.9h155l21.3-27.7c0.4-0.5,0.8-1.1,1.1-1.6l0.2-0.2H35.9L58.2,115.9z"/>
				</g>
				<path class="st0" d="M258.7,134l0.3-0.4h-0.1C258.8,133.8,258.8,133.9,258.7,134z"/>
				<path class="st0" d="M262.2,62.1c-2.9-5.8-7-10.7-11.8-14.5c1.7,1.4,2.6,3,3.1,4c1,2.1,2.9,7.5-1.3,12.9l-16.6,21.8l-0.2,0.2
					c-0.3,0.5-0.6,1.1-1.1,1.6L213,115.8l-3.5,4.5l0,0l-10,13.2l-22.3,29.6L94,273.6h37.2l83.5-110.4l22.4-29.6l13.2-17.5l7.6-10
					c3.7-4.8,6.2-10.3,7.6-15.9C267.7,81,266.6,71.1,262.2,62.1z"/>
			</g>
			<path class="st0" d="M253.5,51.6c-0.5-1-1.5-2.6-3.1-4c-0.3-0.2-0.5-0.4-0.8-0.6c-7-5.2-15.7-8.2-24.9-8.2H0l22.3,29.6h202.3
				c5.7,0,8.8,3.2,10.3,5.5c0.3,0.5,0.6,1,0.8,1.3c0.9,1.9,2.5,6.4-0.2,11.3l16.7-22C256.4,59.1,254.5,53.7,253.5,51.6z"/>
		</g>
	</g>
</g>
</svg>
